<svg data-v-423bf9ae="" xmlns="http://www.w3.org/2000/svg" viewBox="0 0 408 90" class="iconLeft"><!----><!----><!----><g data-v-423bf9ae="" id="96ee8f0a-8cd8-4647-aba3-5439dd88f4b7" fill="#39250B" transform="matrix(4.535147549208299,0,0,4.535147549208299,118.07063869471344,2.981859038929798)"><path d="M3.28 12.19L4.13 12.19L4.13 12.19Q5.52 12.19 6.16 11.70L6.16 11.70L6.16 11.70Q6.80 11.21 6.80 10.29L6.80 10.29L6.80 10.29Q6.80 9.31 6.15 8.82L6.15 8.82L6.15 8.82Q5.50 8.33 4.03 8.33L4.03 8.33L3.25 8.33L3.25 8.33Q3.25 9.38 3.25 10.32L3.25 10.32L3.25 10.32Q3.25 11.27 3.28 12.19L3.28 12.19ZM4.27 4.14L3.28 4.14L3.28 4.14Q3.25 5.03 3.25 5.91L3.25 5.91L3.25 5.91Q3.25 6.79 3.25 7.69L3.25 7.69L3.99 7.69L3.99 7.69Q5.26 7.69 5.84 7.26L5.84 7.26L5.84 7.26Q6.41 6.83 6.41 5.87L6.41 5.87L6.41 5.87Q6.41 4.91 5.87 4.53L5.87 4.53L5.87 4.53Q5.33 4.14 4.27 4.14L4.27 4.14ZM0.62 3.49L4.68 3.49L4.68 3.49Q5.40 3.49 5.97 3.65L5.97 3.65L5.97 3.65Q6.54 3.82 6.93 4.13L6.93 4.13L6.93 4.13Q7.32 4.44 7.53 4.86L7.53 4.86L7.53 4.86Q7.73 5.28 7.73 5.78L7.73 5.78L7.73 5.78Q7.73 6.52 7.23 7.13L7.23 7.13L7.23 7.13Q6.73 7.74 5.59 7.98L5.59 7.98L5.59 7.98Q6.27 8.08 6.77 8.29L6.77 8.29L6.77 8.29Q7.27 8.51 7.58 8.81L7.58 8.81L7.58 8.81Q7.90 9.11 8.04 9.49L8.04 9.49L8.04 9.49Q8.19 9.87 8.19 10.29L8.19 10.29L8.19 10.29Q8.19 10.77 7.99 11.23L7.99 11.23L7.99 11.23Q7.78 11.69 7.34 12.05L7.34 12.05L7.34 12.05Q6.89 12.40 6.17 12.63L6.17 12.63L6.17 12.63Q5.46 12.85 4.44 12.85L4.44 12.85L0.62 12.85L0.62 12.28L1.90 12.12L1.90 12.12Q1.93 11.24 1.93 10.34L1.93 10.34L1.93 10.34Q1.93 9.44 1.93 8.51L1.93 8.51L1.93 7.83L1.93 7.83Q1.93 6.92 1.93 6.02L1.93 6.02L1.93 6.02Q1.93 5.12 1.90 4.21L1.90 4.21L0.62 4.06L0.62 3.49ZM10.95 4.48L10.95 4.48L10.95 4.48Q10.54 4.48 10.28 4.23L10.28 4.23L10.28 4.23Q10.01 3.98 10.01 3.57L10.01 3.57L10.01 3.57Q10.01 3.16 10.28 2.92L10.28 2.92L10.28 2.92Q10.54 2.67 10.95 2.67L10.95 2.67L10.95 2.67Q11.35 2.67 11.62 2.92L11.62 2.92L11.62 2.92Q11.89 3.16 11.89 3.57L11.89 3.57L11.89 3.57Q11.89 3.98 11.62 4.23L11.62 4.23L11.62 4.23Q11.35 4.48 10.95 4.48ZM11.58 12.15L12.54 12.35L12.54 12.85L9.30 12.85L9.30 12.35L10.35 12.15L10.35 12.15Q10.36 11.62 10.37 11.00L10.37 11.00L10.37 11.00Q10.37 10.37 10.37 9.91L10.37 9.91L10.37 9.21L10.37 9.21Q10.37 8.64 10.36 8.25L10.36 8.25L10.36 8.25Q10.35 7.87 10.33 7.45L10.33 7.45L9.23 7.32L9.23 6.83L11.38 5.98L11.59 6.12L11.55 8.02L11.55 9.91L11.55 9.91Q11.55 10.37 11.56 11.00L11.56 11.00L11.56 11.00Q11.56 11.62 11.58 12.15L11.58 12.15ZM15.65 7.59L15.65 11.48L15.65 11.48Q16.09 11.89 16.51 12.08L16.51 12.08L16.51 12.08Q16.93 12.26 17.32 12.26L17.32 12.26L17.32 12.26Q17.70 12.26 18.03 12.10L18.03 12.10L18.03 12.10Q18.37 11.93 18.62 11.59L18.62 11.59L18.62 11.59Q18.87 11.26 19.02 10.75L19.02 10.75L19.02 10.75Q19.17 10.25 19.17 9.58L19.17 9.58L19.17 9.58Q19.17 8.22 18.68 7.50L18.68 7.50L18.68 7.50Q18.19 6.78 17.39 6.78L17.39 6.78L17.39 6.78Q17.07 6.78 16.65 6.94L16.65 6.94L16.65 6.94Q16.23 7.11 15.65 7.59L15.65 7.59ZM15.61 4.75L15.61 7.06L15.61 7.06Q16.10 6.50 16.64 6.24L16.64 6.24L16.64 6.24Q17.18 5.98 17.77 5.98L17.77 5.98L17.77 5.98Q18.33 5.98 18.81 6.22L18.81 6.22L18.81 6.22Q19.29 6.45 19.65 6.91L19.65 6.91L19.65 6.91Q20.01 7.36 20.22 8.01L20.22 8.01L20.22 8.01Q20.43 8.65 20.43 9.46L20.43 9.46L20.43 9.46Q20.43 10.28 20.21 10.94L20.21 10.94L20.21 10.94Q19.99 11.61 19.61 12.08L19.61 12.08L19.61 12.08Q19.22 12.54 18.70 12.80L18.70 12.80L18.70 12.80Q18.17 13.06 17.56 13.06L17.56 13.06L17.56 13.06Q17.07 13.06 16.60 12.87L16.60 12.87L16.60 12.87Q16.14 12.67 15.71 12.18L15.71 12.18L15.60 12.18L15.51 12.99L13.40 12.85L13.40 12.35L14.45 12.15L14.45 12.15Q14.46 11.62 14.47 11.00L14.47 11.00L14.47 11.00Q14.48 10.37 14.48 9.91L14.48 9.91L14.48 3.91L13.33 3.77L13.33 3.28L15.47 2.65L15.67 2.76L15.61 4.75ZM23.63 12.15L24.74 12.35L24.74 12.85L21.29 12.85L21.29 12.35L22.40 12.15L22.40 12.15Q22.41 11.58 22.42 11.03L22.42 11.03L22.42 11.03Q22.43 10.47 22.43 9.91L22.43 9.91L22.43 3.91L21.28 3.77L21.28 3.28L23.46 2.65L23.66 2.76L23.60 4.75L23.60 9.91L23.60 9.91Q23.60 10.47 23.61 11.03L23.61 11.03L23.61 11.03Q23.62 11.59 23.63 12.15L23.63 12.15ZM27.03 8.86L29.58 8.86L29.58 8.86Q30.09 8.86 30.25 8.65L30.25 8.65L30.25 8.65Q30.42 8.44 30.42 8.13L30.42 8.13L30.42 8.13Q30.42 7.84 30.30 7.57L30.30 7.57L30.30 7.57Q30.18 7.29 29.98 7.08L29.98 7.08L29.98 7.08Q29.78 6.87 29.51 6.75L29.51 6.75L29.51 6.75Q29.23 6.62 28.91 6.62L28.91 6.62L28.91 6.62Q28.62 6.62 28.30 6.74L28.30 6.74L28.30 6.74Q27.99 6.86 27.73 7.13L27.73 7.13L27.73 7.13Q27.47 7.41 27.28 7.83L27.28 7.83L27.28 7.83Q27.09 8.26 27.03 8.86L27.03 8.86ZM31.49 9.46L27.01 9.46L27.01 9.46Q27.03 10.77 27.65 11.47L27.65 11.47L27.65 11.47Q28.27 12.17 29.27 12.17L29.27 12.17L29.27 12.17Q29.95 12.17 30.39 11.89L30.39 11.89L30.39 11.89Q30.84 11.61 31.22 11.16L31.22 11.16L31.56 11.42L31.56 11.42Q31.19 12.18 30.51 12.62L30.51 12.62L30.51 12.62Q29.83 13.06 28.87 13.06L28.87 13.06L28.87 13.06Q28.15 13.06 27.58 12.82L27.58 12.82L27.58 12.82Q27.01 12.59 26.60 12.13L26.60 12.13L26.60 12.13Q26.19 11.68 25.97 11.03L25.97 11.03L25.97 11.03Q25.75 10.39 25.75 9.59L25.75 9.59L25.75 9.59Q25.75 8.79 26.00 8.13L26.00 8.13L26.00 8.13Q26.25 7.46 26.69 6.99L26.69 6.99L26.69 6.99Q27.13 6.51 27.72 6.24L27.72 6.24L27.72 6.24Q28.31 5.98 28.97 5.98L28.97 5.98L28.97 5.98Q29.51 5.98 30.00 6.16L30.00 6.16L30.00 6.16Q30.48 6.34 30.83 6.69L30.83 6.69L30.83 6.69Q31.18 7.04 31.38 7.55L31.38 7.55L31.38 7.55Q31.58 8.05 31.58 8.68L31.58 8.68L31.58 8.68Q31.58 8.92 31.56 9.11L31.56 9.11L31.56 9.11Q31.53 9.31 31.49 9.46L31.49 9.46ZM37.67 8.18L37.67 8.18L37.67 8.18Q37.67 8.96 37.84 9.71L37.84 9.71L37.84 9.71Q38.00 10.46 38.33 11.05L38.33 11.05L38.33 11.05Q38.67 11.63 39.19 12.00L39.19 12.00L39.19 12.00Q39.72 12.36 40.45 12.36L40.45 12.36L40.45 12.36Q41.17 12.36 41.70 12.00L41.70 12.00L41.70 12.00Q42.22 11.63 42.56 11.05L42.56 11.05L42.56 11.05Q42.90 10.46 43.06 9.71L43.06 9.71L43.06 9.71Q43.22 8.96 43.22 8.18L43.22 8.18L43.22 8.18Q43.22 7.39 43.06 6.64L43.06 6.64L43.06 6.64Q42.90 5.88 42.56 5.29L42.56 5.29L42.56 5.29Q42.22 4.70 41.70 4.35L41.70 4.35L41.70 4.35Q41.17 3.99 40.45 3.99L40.45 3.99L40.45 3.99Q39.72 3.99 39.19 4.35L39.19 4.35L39.19 4.35Q38.67 4.70 38.33 5.29L38.33 5.29L38.33 5.29Q38.00 5.88 37.84 6.64L37.84 6.64L37.84 6.64Q37.67 7.39 37.67 8.18ZM44.04 14.94L44.21 15.43L44.21 15.43Q43.85 15.67 43.39 15.77L43.39 15.77L43.39 15.77Q42.92 15.88 42.48 15.88L42.48 15.88L42.48 15.88Q41.83 15.88 41.32 15.64L41.32 15.64L41.32 15.64Q40.81 15.41 40.46 15.02L40.46 15.02L40.46 15.02Q40.11 14.63 39.92 14.11L39.92 14.11L39.92 14.11Q39.73 13.58 39.72 12.99L39.72 12.99L39.72 12.99Q39.00 12.87 38.36 12.50L38.36 12.50L38.36 12.50Q37.72 12.12 37.23 11.52L37.23 11.52L37.23 11.52Q36.74 10.91 36.44 10.07L36.44 10.07L36.44 10.07Q36.15 9.24 36.15 8.18L36.15 8.18L36.15 8.18Q36.15 7.03 36.52 6.12L36.52 6.12L36.52 6.12Q36.89 5.21 37.49 4.58L37.49 4.58L37.49 4.58Q38.09 3.95 38.86 3.61L38.86 3.61L38.86 3.61Q39.63 3.28 40.45 3.28L40.45 3.28L40.45 3.28Q41.26 3.28 42.03 3.59L42.03 3.59L42.03 3.59Q42.80 3.91 43.40 4.53L43.40 4.53L43.40 4.53Q44.00 5.15 44.37 6.07L44.37 6.07L44.37 6.07Q44.73 6.99 44.73 8.18L44.73 8.18L44.73 8.18Q44.73 9.23 44.42 10.07L44.42 10.07L44.42 10.07Q44.11 10.92 43.60 11.54L43.60 11.54L43.60 11.54Q43.09 12.17 42.42 12.54L42.42 12.54L42.42 12.54Q41.75 12.92 41.02 13.02L41.02 13.02L41.02 13.02Q41.05 14.04 41.57 14.57L41.57 14.57L41.57 14.57Q42.08 15.11 42.97 15.11L42.97 15.11L42.97 15.11Q43.18 15.11 43.45 15.07L43.45 15.07L43.45 15.07Q43.72 15.04 44.04 14.94L44.04 14.94ZM52.12 12.14L53.09 12.35L53.09 12.85L51.14 12.99L50.99 11.75L50.99 11.75Q50.41 12.45 49.78 12.75L49.78 12.75L49.78 12.75Q49.15 13.06 48.51 13.06L48.51 13.06L48.51 13.06Q48.09 13.06 47.75 12.93L47.75 12.93L47.75 12.93Q47.40 12.80 47.17 12.50L47.17 12.50L47.17 12.50Q46.93 12.19 46.81 11.72L46.81 11.72L46.81 11.72Q46.69 11.24 46.69 10.54L46.69 10.54L46.73 7.01L45.74 6.80L45.74 6.31L47.80 6.12L47.94 6.26L47.87 8.22L47.87 10.39L47.87 10.39Q47.87 11.33 48.14 11.70L48.14 11.70L48.14 11.70Q48.41 12.07 48.99 12.07L48.99 12.07L48.99 12.07Q49.97 12.07 50.95 11.16L50.95 11.16L50.99 7.01L49.99 6.80L49.99 6.31L52.02 6.12L52.16 6.26L52.12 8.22L52.12 12.14ZM55.71 4.48L55.71 4.48L55.71 4.48Q55.30 4.48 55.03 4.23L55.03 4.23L55.03 4.23Q54.77 3.98 54.77 3.57L54.77 3.57L54.77 3.57Q54.77 3.16 55.03 2.92L55.03 2.92L55.03 2.92Q55.30 2.67 55.71 2.67L55.71 2.67L55.71 2.67Q56.11 2.67 56.38 2.92L56.38 2.92L56.38 2.92Q56.64 3.16 56.64 3.57L56.64 3.57L56.64 3.57Q56.64 3.98 56.38 4.23L56.38 4.23L56.38 4.23Q56.11 4.48 55.71 4.48ZM56.34 12.15L57.30 12.35L57.30 12.85L54.05 12.85L54.05 12.35L55.10 12.15L55.10 12.15Q55.12 11.62 55.13 11.00L55.13 11.00L55.13 11.00Q55.13 10.37 55.13 9.91L55.13 9.91L55.13 9.21L55.13 9.21Q55.13 8.64 55.12 8.25L55.12 8.25L55.12 8.25Q55.10 7.87 55.09 7.45L55.09 7.45L53.98 7.32L53.98 6.83L56.14 5.98L56.35 6.12L56.31 8.02L56.31 9.91L56.31 9.91Q56.31 10.37 56.32 11.00L56.32 11.00L56.32 11.00Q56.32 11.62 56.34 12.15L56.34 12.15ZM63.06 10.57L63.78 10.57L63.64 12.85L58.16 12.85L58.16 12.36L62.16 6.83L59.33 6.83L58.95 8.39L58.24 8.33L58.35 6.23L63.57 6.23L63.57 6.73L59.58 12.26L62.64 12.26L63.06 10.57Z"></path></g><defs data-v-423bf9ae=""><linearGradient data-v-423bf9ae="" gradientTransform="rotate(25)" id="73528ed8-285e-45e2-a35f-14021d0eed2e" x1="0%" y1="0%" x2="100%" y2="0%"><stop data-v-423bf9ae="" offset="0%" style="stop-color: rgb(255, 75, 3); stop-opacity: 1;"></stop><stop data-v-423bf9ae="" offset="100%" style="stop-color: rgb(252, 255, 101); stop-opacity: 1;"></stop></linearGradient></defs><g data-v-423bf9ae="" id="3c6d7432-1957-4174-9329-33e58d815e7e" transform="matrix(1.198242446102869,0,0,1.198242446102869,-9.10387403867363,-15.578143034254857)" stroke="none" fill="url(#73528ed8-285e-45e2-a35f-14021d0eed2e)"><path d="M49.569 22.967c-9.975-5.691-20.677-9.125-31.045-9.962v58.351c10.367.814 21.05 4.154 31.045 9.699V22.967zM82.444 13.005c-10.368.838-21.071 4.271-31.045 9.962v58.087c9.993-5.545 20.679-8.885 31.045-9.699v-58.35z"></path><path d="M49.229 84.073c.814.278 1.671.29 2.485.012 11.657-5.043 23.865-7.313 35.798-6.79V19.524a67.09 67.09 0 0 0-3.24-.055v53.594l-.852.056c-10.672.697-21.732 4.177-32.021 10.048a2.826 2.826 0 0 1-1.83 0c-10.29-5.871-21.349-9.351-32.021-10.048l-.854-.056V19.469a65.788 65.788 0 0 0-3.239.055v57.771c11.932-.524 24.114 1.735 35.774 6.778z"></path><path d="M92.579 26.009c-1.07-.149-2.157-.228-3.237-.335v53.55l-.968-.056c-12.195-.699-25.06 1.777-36.975 7.065l-.916.381-.915-.381c-11.917-5.288-24.781-7.765-36.976-7.065l-.967.056v-53.55c-1.081.108-2.168.187-3.238.335v58.707a4.876 4.876 0 0 1 1.044.748c12.951-1.75 26.393-1.536 39.18 2.651a19.022 19.022 0 0 1 1.873-.095c.661 0 1.285.037 1.872.095 12.785-4.188 26.229-4.401 39.179-2.651 0 0 .474-.462 1.044-.748V26.009z"></path></g><!----></svg>